<?xml version="1.0" standalone="no"?>
<!DOCTYPE svg PUBLIC "-//W3C//DTD SVG 20010904//EN"
 "http://www.w3.org/TR/2001/REC-SVG-20010904/DTD/svg10.dtd">
<svg version="1.0" xmlns="http://www.w3.org/2000/svg"
 width="512.000000pt" height="512.000000pt" viewBox="0 0 512.000000 512.000000"
 preserveAspectRatio="xMidYMid meet">
<metadata>
Created by potrace 1.16, written by Peter Selinger 2001-2019
</metadata>
<g transform="translate(0.000000,512.000000) scale(0.100000,-0.100000)"
fill="#000000" stroke="none">
<path d="M2745 3570 c-3 -5 1 -10 10 -10 9 0 13 5 10 10 -3 6 -8 10 -10 10 -2
0 -7 -4 -10 -10z"/>
<path d="M2680 3560 c0 -5 7 -10 15 -10 8 0 15 5 15 10 0 6 -7 10 -15 10 -8 0
-15 -4 -15 -10z"/>
<path d="M2595 3550 c-28 -7 -27 -8 13 -9 27 -1 41 3 37 9 -7 11 -7 11 -50 0z"/>
<path d="M2523 3533 c9 -2 23 -2 30 0 6 3 -1 5 -18 5 -16 0 -22 -2 -12 -5z"/>
<path d="M2468 3523 c6 -2 18 -2 25 0 6 3 1 5 -13 5 -14 0 -19 -2 -12 -5z"/>
<path d="M2418 3513 c7 -3 16 -2 19 1 4 3 -2 6 -13 5 -11 0 -14 -3 -6 -6z"/>
<path d="M1538 3173 c6 -2 18 -2 25 0 6 3 1 5 -13 5 -14 0 -19 -2 -12 -5z"/>
<path d="M1488 3163 c7 -3 16 -2 19 1 4 3 -2 6 -13 5 -11 0 -14 -3 -6 -6z"/>
<path d="M980 3069 c-245 -48 -470 -94 -500 -101 -91 -22 -85 -35 84 -183 81
-70 146 -131 146 -135 0 -4 -25 -18 -55 -30 -30 -12 -55 -28 -55 -35 0 -6 96
-97 212 -201 117 -104 300 -270 406 -369 192 -179 357 -330 652 -599 85 -78
220 -202 300 -276 304 -283 432 -395 456 -405 22 -8 36 -4 85 23 l60 33 32
-20 32 -20 75 33 c41 18 273 120 515 226 242 106 557 245 700 308 143 63 292
127 330 143 92 39 113 59 97 94 -17 36 -15 43 10 50 13 4 56 22 95 41 40 19
97 45 128 58 86 38 79 48 -97 157 -84 51 -163 99 -175 107 -13 8 -23 12 -23 9
0 -3 46 -34 102 -69 56 -34 131 -81 167 -103 35 -23 66 -46 68 -52 2 -6 -109
-59 -249 -118 -139 -60 -431 -189 -648 -288 -217 -98 -564 -256 -770 -349
-206 -93 -406 -186 -444 -205 -48 -24 -74 -32 -87 -26 -21 9 -238 205 -420
379 -69 66 -193 180 -275 254 -187 167 -232 212 -129 128 68 -56 751 -571 795
-600 63 -42 -111 98 -330 264 -146 111 -348 270 -450 353 -102 83 -212 172
-245 197 -33 25 -146 124 -250 219 -178 163 -405 365 -605 539 -47 41 -87 80
-89 85 -1 6 13 14 32 19 32 8 40 4 148 -74 63 -46 157 -117 209 -158 52 -42
102 -80 110 -85 8 -5 -57 62 -145 148 -88 87 -153 154 -144 149 18 -11 3 2
-190 162 -80 67 -164 137 -186 156 l-39 35 34 11 c19 7 246 54 505 106 534
107 520 104 485 104 -14 0 -225 -40 -470 -89z m711 -1446 c13 -16 12 -17 -3
-4 -17 13 -22 21 -14 21 2 0 10 -8 17 -17z"/>
<path d="M3875 2893 c6 -6 127 -83 270 -171 586 -360 671 -412 685 -421 8 -5
12 -12 8 -16 -14 -14 -409 -148 -662 -225 -343 -103 -447 -149 -613 -272 -42
-31 -110 -64 -210 -104 -81 -31 -280 -115 -442 -186 -161 -70 -300 -128 -308
-128 -8 0 -119 85 -246 188 -415 338 -629 492 -815 586 -84 43 -73 29 23 -27
243 -143 466 -312 845 -642 102 -89 195 -168 208 -177 31 -21 48 -16 272 76
102 42 228 94 280 115 52 22 241 99 420 171 179 72 439 179 579 237 234 98
257 105 285 95 29 -11 30 -10 11 4 -11 9 -15 18 -10 20 6 2 25 13 44 25 31 19
33 23 29 64 l-5 43 143 52 c205 75 217 87 135 132 -27 15 -233 140 -458 279
-450 278 -483 297 -468 282z"/>
<path d="M935 2494 c233 -218 426 -392 518 -465 56 -45 110 -89 120 -97 9 -8
17 -13 17 -10 0 12 -471 440 -661 601 -87 73 -83 55 6 -29z"/>
<path d="M523 2271 c-145 -53 -268 -102 -275 -109 -10 -10 2 -27 57 -83 39
-38 94 -86 122 -106 29 -20 53 -39 53 -42 0 -4 -34 -19 -75 -35 -82 -31 -100
-46 -91 -74 4 -12 184 -129 464 -302 251 -156 522 -325 602 -375 316 -201 518
-330 580 -370 423 -277 598 -385 622 -385 29 0 286 109 953 405 220 97 580
256 800 352 220 97 416 184 437 194 47 24 80 71 76 106 -3 28 -27 46 -180 132
-102 58 -62 27 58 -45 l117 -69 -84 -39 c-46 -21 -221 -98 -389 -171 -168 -73
-462 -202 -655 -287 -379 -168 -534 -236 -865 -381 l-215 -94 -13 23 c-18 35
-520 356 -737 473 -103 56 -31 8 216 -146 397 -246 514 -325 517 -351 4 -28
-24 -62 -51 -62 -11 0 -153 86 -316 192 -534 345 -970 621 -1386 878 -225 138
-437 268 -469 288 -33 21 -61 42 -63 48 -2 6 33 27 79 47 l82 37 100 -64 c469
-299 765 -476 1004 -597 146 -74 409 -185 418 -176 2 2 -40 23 -93 47 -313
136 -483 235 -1218 708 -352 227 -458 304 -439 321 5 4 113 45 239 91 240 87
320 119 295 118 -8 0 -133 -44 -277 -97z"/>
<path d="M3727 2093 c-41 -54 -97 -152 -97 -170 0 -4 16 20 34 55 19 35 53 88
76 118 22 29 39 54 36 54 -3 0 -25 -26 -49 -57z"/>
<path d="M1780 1046 c0 -3 9 -10 20 -16 11 -6 20 -8 20 -6 0 3 -9 10 -20 16
-11 6 -20 8 -20 6z"/>
</g>
</svg>