<svg xmlns="http://www.w3.org/2000/svg" viewBox="0 0 258.23 57.6"><defs><style>.cls-1{fill:#0c1b44;}.cls-2{fill:#f23359;}</style></defs><title>inaralogo</title><g id="Layer_2" data-name="Layer 2"><g id="Layer_1-2" data-name="Layer 1"><path class="cls-1" d="M84.36,31.31c0-3.46-1.13-5.19-3.6-5.33V24.32l16-.93v26.3c0,3.53,1.27,5.26,3.73,5.39v1.66H80.77V55.08c2.46-.13,3.6-1.86,3.6-5.39Zm-.73-17.38c0-3.86,3.53-6,7.06-6s6.46,2.4,6.46,6.19c0,3.6-3.46,5.79-6.86,5.79S83.63,17.72,83.63,13.93Z"/><path class="cls-1" d="M105.6,31.31c0-3.46-1.13-5.19-3.6-5.33V24.32l14.18-.93c1.2,1.93,1.4,4.19,1.86,6.33a17.56,17.56,0,0,1,13.25-6.66c7.12.27,8.92,4,8.92,11.32V49.69c0,3.53,1.2,5.26,3.66,5.39v1.66H124V55.08c2.46-.13,3.8-1.86,3.8-5.39V36.9c-.07-2.26.33-6.66-3.13-6.66a6.22,6.22,0,0,0-5.39,3.66c-1,2.06-1.2,5.06-1.2,7.32v8.46c0,3.53,1.53,5.26,4,5.39v1.66H102V55.08c2.46-.13,3.6-1.86,3.6-5.39Z"/><path class="cls-1" d="M204,49.75c0,3.6,1.73,5.33,3.93,5.33v1.66h-20V55.08c2.2,0,3.66-1.86,3.66-5.39V31.31c0-3.46-1.2-5.19-3.66-5.33V24.32L202,23.38c1.53,2.2,1.8,4.86,2,7.39,1.6-3.8,6.19-7.46,10.39-7.46a13.85,13.85,0,0,1,3.33.47l-2.33,9.12A6.28,6.28,0,0,0,210.54,31a6.13,6.13,0,0,0-5.46,3.46c-1.33,2.4-1.07,4.66-1.07,7.26Z"/><path class="cls-1" d="M182.53,47.76v-.43l.07.09V23.08a8.4,8.4,0,0,1-4.33,1.2c-6.44,0-8.69-1.61-14.55-1.61-9.76,0-19.23,6.16-19.23,18.75,0,5,2.75,16.17,13.43,16.17,7.75,0,11.31-4,11.94-5.1l.16-.22a8.77,8.77,0,0,0,2.33,4.46H186.2V55.08C182.13,54.68,182.53,50.82,182.53,47.76Zm-12.67-5.44c0,2.06-2.66,7.48-6.27,7.48s-5.79-3.84-5.79-8.9a15.72,15.72,0,0,1,2.46-8.59,9.18,9.18,0,0,1,7.59-4.16,10.09,10.09,0,0,1,2,.13Z"/><path class="cls-1" d="M254.57,47.76v-.43l.07.09V23.08a8.4,8.4,0,0,1-4.33,1.2c-6.44,0-8.69-1.61-14.55-1.61-9.76,0-19.23,6.16-19.23,18.75,0,5,2.75,16.17,13.43,16.17,7.75,0,11.31-4,11.94-5.1l.16-.22a8.77,8.77,0,0,0,2.33,4.46h13.85V55.08C254.17,54.68,254.57,50.82,254.57,47.76Zm-12.67-5.44c0,2.06-2.66,7.48-6.27,7.48s-5.79-3.84-5.79-8.9a15.72,15.72,0,0,1,2.46-8.59,9.18,9.18,0,0,1,7.59-4.16,10.09,10.09,0,0,1,2,.13Z"/><path class="cls-2" d="M7.07,27.48c6.2,0,11.71,3.18,14,6.74a19.21,19.21,0,0,1,2.78,8.21A58.59,58.59,0,0,0,0,31.36C1,29.15,3,27.48,7.07,27.48Z"/><path class="cls-2" d="M7.07,41.87c6.2,0,11.71,3.18,14,6.74a19.21,19.21,0,0,1,2.78,8.21A58.59,58.59,0,0,0,0,45.75C1,43.54,3,41.87,7.07,41.87Z"/><path class="cls-2" d="M46.16,27.48c-6.2,0-11.71,3.18-14,6.74a19.21,19.21,0,0,0-2.78,8.21A58.59,58.59,0,0,1,53.23,31.36C52.23,29.15,50.23,27.48,46.16,27.48Z"/><path class="cls-2" d="M46.16,41.87c-6.2,0-11.71,3.18-14,6.74a19.21,19.21,0,0,0-2.78,8.21A58.59,58.59,0,0,1,53.23,45.75C52.23,43.54,50.23,41.87,46.16,41.87Z"/><path class="cls-2" d="M26.61,0A30.43,30.43,0,0,0,0,15.66,56.58,56.58,0,0,1,26.41,27.77l.27.27.27-.27A56.29,56.29,0,0,1,53.23,15.66,30.43,30.43,0,0,0,26.61,0Zm-.39,19.92c-3.53,0-6.66-2.2-6.66-6s3.53-6,7.06-6,6.46,2.4,6.46,6.19C33.08,17.72,29.62,19.92,26.22,19.92Z"/></g></g></svg>